<?xml version="1.0" encoding="UTF-8"?>
<svg width="91.0762694px" height="55px" viewBox="0 0 91.0762694 55" version="1.1" xmlns="http://www.w3.org/2000/svg" xmlns:xlink="http://www.w3.org/1999/xlink">
    <title>icons/ people</title>
    <g id="icons/-people" stroke="none" stroke-width="1" fill="none" fill-rule="evenodd">
        <path d="M45.5168856,25.4580521 C52.5469325,25.4580521 58.2459116,19.759073 58.2459116,12.729026 C58.2459116,5.69897908 52.5469325,0 45.5168856,0 C38.4868386,0 32.7878595,5.69897908 32.7878595,12.729026 C32.7878595,19.759073 38.4868386,25.4580521 45.5168856,25.4580521 L45.5168856,25.4580521 Z M45.5168856,3.18225651 C50.7894208,3.18225651 55.0636551,7.45649082 55.0636551,12.729026 C55.0636551,18.0015613 50.7894208,22.2757956 45.5168856,22.2757956 C40.2443504,22.2757956 35.970116,18.0015613 35.970116,12.729026 C35.9759698,7.46063379 40.2484901,3.19286078 45.5168856,3.19286403 L45.5168856,3.18225651 Z" id="Shape" fill="#FEBC11" fill-rule="nonzero"></path>
        <path d="M18.0115818,32.6923875 C22.0754982,32.6966733 25.7416418,30.2519316 27.2998097,26.4985933 C28.8579777,22.745255 28.0011627,18.4228438 25.1290567,15.5477017 C22.2569506,12.6725596 17.935447,11.8111784 14.1804646,13.36538 C10.4254822,14.9195815 7.97686626,18.5831401 7.97686626,22.6470588 C7.97686626,28.1907977 12.467846,32.6865279 18.0115818,32.6923875 L18.0115818,32.6923875 Z M18.0115818,15.7945916 C20.789359,15.7903098 23.2958059,17.4608679 24.3607979,20.0263808 C25.4257898,22.5918938 24.8392895,25.5463916 22.875102,27.5105791 C20.9109146,29.4747665 17.9564167,30.0612669 15.3909038,28.9962749 C12.8253908,27.9312829 11.1548328,25.4248361 11.1591145,22.6470588 C11.1766168,18.8732599 14.2377468,15.8216071 18.0115818,15.8158149 L18.0115818,15.7945916 Z" id="Shape" fill="#FEBC11" fill-rule="nonzero"></path>
        <path d="M73.0221894,32.6923875 C77.0861058,32.6966733 80.7522494,30.2519316 82.3104173,26.4985933 C83.8685852,22.745255 83.0117703,18.4228438 80.1396642,15.5477017 C77.2675582,12.6725596 72.9460546,11.8111784 69.1910722,13.36538 C65.4360898,14.9195815 62.9874738,18.5831401 62.9874738,22.6470588 C62.9874738,28.1907977 67.4784536,32.6865279 73.0221894,32.6923875 Z M73.0221894,15.7945916 C75.7999666,15.7903098 78.3064134,17.4608679 79.3714054,20.0263808 C80.4363974,22.5918938 79.849897,25.5463916 77.8857096,27.5105791 C75.9215221,29.4747665 72.9670243,30.0612669 70.4015114,28.9962749 C67.8359984,27.9312829 66.1654403,25.4248361 66.1697221,22.6470588 C66.1872244,18.8732599 69.2483543,15.8216071 73.0221894,15.8158149 L73.0221894,15.7945916 Z" id="Shape" fill="#FEBC11" fill-rule="nonzero"></path>
        <path d="M73.0221894,34.3683703 C69.6434597,34.3685482 66.3337291,35.3246926 63.4754198,37.126326 C59.0623965,31.7796099 52.4920026,28.6832828 45.5593157,28.6832828 C38.6266287,28.6832828 32.0562349,31.7796099 27.6432115,37.126326 L27.5795664,37.126326 C22.0172461,33.6552233 15.0091968,33.4766903 9.27735078,36.6600694 C3.54550479,39.8434485 -0.00685540488,45.8870704 0,52.4435873 L0,53.4088718 C0,54.2876276 0.712382337,55 1.59113819,55 C2.46989404,55 3.18226642,54.2876276 3.18226644,53.4088718 L3.18226644,52.4435873 C3.16625198,47.0683658 6.0561334,42.1040711 10.7382426,39.4637839 C15.4203519,36.8234967 21.1637339,36.9194098 25.7550726,39.7145613 C23.4772812,43.3870769 22.2721248,47.6234957 22.2758055,51.9450338 L22.2758055,53.2285439 C22.2758055,54.1072998 22.9881779,54.8196722 23.8669338,54.8196722 C24.7456896,54.8196722 25.458062,54.1072998 25.458062,53.2285439 L25.458062,51.9450338 C25.458062,40.8551347 34.4482015,31.8649952 45.5381006,31.8649952 C56.6279997,31.8649952 65.6181392,40.8551347 65.6181392,51.9450338 C65.6181392,52.8237897 66.3305116,53.5361621 67.2092675,53.5361621 C68.0880233,53.5361621 68.8003957,52.8237897 68.8003957,51.9450338 C68.8054911,47.6266279 67.6001503,43.3932358 65.3211286,39.7251688 C67.6490937,38.3165311 70.3225194,37.5820735 73.0434044,37.6036644 C81.2451259,37.6036644 87.8939348,44.2524734 87.8939348,52.4541948 C87.8939348,53.3329507 88.6063072,54.0453231 89.485063,54.0453231 C90.3638189,54.0453231 91.0762694,53.3329507 91.0762694,52.4541948 C91.090299,47.658741 89.1937367,43.0551687 85.8058112,39.6612716 C82.4178858,36.2673745 77.8176606,34.3627078 73.0221894,34.3683703 Z" id="Path" fill="#FEBC11" fill-rule="nonzero"></path>
    </g>
</svg>