<?xml version="1.0" encoding="UTF-8"?>
<svg width="55px" height="55px" viewBox="0 0 55 55" version="1.1" xmlns="http://www.w3.org/2000/svg" xmlns:xlink="http://www.w3.org/1999/xlink">
    <title>icons/ world</title>
    <g id="icons/-world" stroke="none" stroke-width="1" fill="none" fill-rule="evenodd">
        <path d="M27.5,0 C12.3345754,0 0,12.3390795 0,27.5 C0,42.6609205 12.3345754,55 27.5,55 C42.6609205,55 55,42.6609205 55,27.5 C55,12.3390795 42.6609205,0 27.5,0 Z M28.3895668,16.2306527 C31.8690115,16.1608386 35.238105,15.6856523 38.3346982,14.8321186 C39.3030874,18.334084 39.8751126,22.3405127 39.9449267,26.6104332 L28.3895668,26.6104332 L28.3895668,16.2306527 Z M28.3895668,14.4537712 L28.3895668,1.87372042 C32.317173,2.45024977 35.7493244,6.76521169 37.8347392,13.1295553 C34.8980427,13.9357956 31.6978544,14.3839571 28.3895668,14.4537712 Z M26.6081811,1.87372042 L26.6081811,14.4537712 C23.2976415,14.3839571 20.0974531,13.9357956 17.1630088,13.1295553 C19.2484236,6.76521169 22.682827,2.45024977 26.6081811,1.87372042 Z M26.6081811,16.2306527 L26.6081811,26.6104332 L15.0505692,26.6104332 C15.1226353,22.3405127 15.6946606,18.331832 16.6607976,14.8321186 C19.761895,15.6856523 23.1332405,16.1608386 26.6081811,16.2306527 Z M13.2759397,26.6104332 L1.82417492,26.6104332 C2.03136516,20.6334453 4.26541643,15.1699288 7.88448939,10.8977561 C9.93161903,12.287282 12.3188109,13.4268283 14.944722,14.2983785 C13.9312915,17.9557366 13.3457538,22.1378265 13.2759397,26.6104332 Z M13.2759397,28.3895668 C13.3457538,32.8666776 13.9312915,37.0510196 14.944722,40.7061256 C12.3188109,41.5731717 9.93161903,42.712718 7.88448939,44.1022439 C4.26541643,39.8323233 2.02911309,34.3688068 1.82417492,28.3895668 L13.2759397,28.3895668 Z M15.0528212,28.3895668 L26.6104332,28.3895668 L26.6104332,38.7693473 C23.1332405,38.8391614 19.7641471,39.3188519 16.6630497,40.1678814 C15.6969126,36.6704201 15.1248874,32.6594873 15.0528212,28.3895668 Z M26.6081811,40.5507329 L26.6081811,53.1262796 C22.682827,52.5497502 19.2461715,48.2347883 17.1630088,41.8704447 C20.0997052,41.0687085 23.2998935,40.620547 26.6081811,40.5507329 Z M28.3895668,53.1262796 L28.3895668,40.5507329 C31.7001065,40.620547 34.9002948,41.0687085 37.8347392,41.8749488 C35.7470723,48.2347883 32.317173,52.5497502 28.3895668,53.1262796 Z M28.3895668,38.7693473 L28.3895668,28.3895668 L39.9449267,28.3895668 C39.8751126,32.6594873 39.3030874,36.6726722 38.3346982,40.1678814 C35.238105,39.3188519 31.8667595,38.8391614 28.3895668,38.7693473 Z M41.7218082,28.3895668 L53.173573,28.3895668 C52.9663828,34.3665547 50.7323315,39.8300712 47.1110065,44.1022439 C45.0661289,42.7172222 42.678937,41.5731717 40.0507739,40.7061256 C41.0687085,37.0487675 41.6519941,32.8666776 41.7218082,28.3895668 Z M41.7218082,26.6104332 C41.6519941,22.1333224 41.0687085,17.9489804 40.0507739,14.2983785 C42.678937,13.4268283 45.0661289,12.287282 47.1110065,10.8977561 C50.7323315,15.1676767 52.9686348,20.6311932 53.173573,26.6104332 L41.7218082,26.6104332 L41.7218082,26.6104332 Z M45.9016461,9.56678405 C44.0436901,10.7986651 41.8929654,11.8188519 39.5260421,12.6025715 C38.0779625,8.20878716 36.0060601,4.70682172 33.5242814,2.52006388 C38.3076734,3.67762673 42.5730898,6.15264925 45.9016461,9.56678405 Z M21.4734665,2.52006388 C18.9916878,4.70682172 16.9175334,8.20653509 15.4717058,12.6070756 C13.1025305,11.8188519 10.9518057,10.7986651 9.09610188,9.57128818 C12.422406,6.15264925 16.6900745,3.67762673 21.4734665,2.52006388 Z M9.09610188,45.433216 C10.9518057,44.2013349 13.1025305,43.1811481 15.4717058,42.3974285 C16.9175334,46.7912128 18.9916878,50.2931783 21.4734665,52.4799361 C16.6900745,51.3223733 12.422406,48.8473507 9.09610188,45.433216 Z M33.5242814,52.4799361 C36.0083122,50.2931783 38.0779625,46.7934649 39.5260421,42.3974285 C41.8929654,43.1811481 44.0436901,44.2013349 45.9016461,45.433216 C42.5730898,48.8473507 38.3076734,51.3223733 33.5242814,52.4799361 Z" id="Shape" fill="#FEBC11" fill-rule="nonzero"></path>
    </g>
</svg>