<?xml version="1.0" encoding="UTF-8"?>
<svg width="55px" height="55px" viewBox="0 0 55 55" version="1.1" xmlns="http://www.w3.org/2000/svg" xmlns:xlink="http://www.w3.org/1999/xlink">
    <title>icons/ quality</title>
    <g id="icons/-quality" stroke="none" stroke-width="1" fill="none" fill-rule="evenodd">
        <path d="M15.7849011,19.904137 C16.0485765,19.9048183 16.2966488,19.7792508 16.4522169,19.5663571 C18.6879754,16.4640425 22.1323072,14.452915 25.9329181,14.0306249 C29.733529,13.6083348 33.5353198,14.8143375 36.3975434,17.3502097 C36.7387919,17.6527833 37.2607128,17.6214311 37.5632864,17.2801827 C37.86586,16.9389343 37.8345078,16.4170134 37.4932594,16.1144398 C34.2842849,13.2678316 30.0204618,11.9123033 25.7567896,12.3832539 C21.4931174,12.8542044 17.6279274,15.1076355 15.1175854,18.5859796 C14.9343359,18.8367507 14.9076948,19.1692686 15.0486799,19.4460171 C15.189665,19.7227656 15.4743116,19.896703 15.7849011,19.8958957 L15.7849011,19.904137 Z" id="Path" fill="#FEBC11" fill-rule="nonzero" opacity="0.396158854"></path>
        <path d="M38.9514679,18.8908029 C38.5755673,19.1422265 38.4726093,19.6496622 38.7207909,20.0277112 C42.1844349,25.2900976 41.5541727,32.2473382 37.2012291,36.8016134 C32.8482855,41.3558886 25.9266276,42.2998583 20.5131167,39.0775237 C15.0996058,35.8551891 12.6293658,29.3207924 14.5573697,23.3230977 C14.6616242,23.0399958 14.6028001,22.7225516 14.4040302,22.4956017 C14.2052603,22.2686519 13.8983394,22.1684988 13.6039658,22.2345281 C13.3095922,22.3005574 13.0748532,22.5222073 12.9920611,22.8123128 C10.8041036,29.5441941 13.5608918,36.894596 19.6361313,40.5273428 C25.7113708,44.1600897 33.4912132,43.1101657 38.386146,37.9969457 C43.2810787,32.8837258 43.9907943,25.065504 40.0966147,19.1544338 C39.9810271,18.9661167 39.794637,18.8321245 39.5793083,18.7825525 C39.3639796,18.7329804 39.1377632,18.771984 38.9514679,18.8908029 L38.9514679,18.8908029 Z" id="Path" fill="#FEBC11" fill-rule="nonzero" opacity="0.396158854"></path>
        <path d="M30.8942481,21.6177352 L24.8719293,27.6400539 L24.2046135,26.9150689 C23.6869303,26.3594367 22.9620877,26.0432502 22.2026663,26.0417915 L22.2026663,26.0417915 C21.0987746,26.0435074 20.1041212,26.7086298 19.6808263,27.7281401 C19.2575314,28.7476503 19.4885803,29.9216774 20.2666267,30.7047633 L24.2540443,34.7004194 C24.4095197,34.8546324 24.6199945,34.940601 24.8389754,34.9393487 L24.8389754,34.9393487 C25.0579563,34.940601 25.2684312,34.8546324 25.4239065,34.7004194 L34.7086579,25.432145 C35.2152697,24.9267423 35.4999831,24.240543 35.4999831,23.5249401 C35.4999831,22.8093372 35.2152697,22.1231379 34.7086579,21.6177352 C33.6417583,20.5977252 31.9611476,20.5977252 30.8942481,21.6177352 L30.8942481,21.6177352 Z M33.5470342,22.7793589 C33.7442477,22.9757062 33.8551142,23.2425307 33.8551142,23.5208209 C33.8551142,23.799111 33.7442477,24.0659355 33.5470342,24.2622828 L24.8389754,32.9621031 L21.4364889,29.5513781 C21.1488747,29.2752807 21.0354016,28.8639336 21.1407831,28.4794256 C21.2461646,28.0949175 21.5535035,27.7989017 21.9416947,27.7080212 C22.329886,27.6171408 22.7366859,27.7459678 23.0017975,28.0437388 L24.2540443,29.3866087 C24.4053864,29.5499168 24.6163847,29.6450146 24.8389754,29.6502397 C25.0636405,29.655964 25.2808924,29.5696585 25.4403835,29.4113241 L32.0311564,22.8205512 C32.4372003,22.3953139 33.1101378,22.3769276 33.5387957,22.7793589 L33.5470342,22.7793589 Z" id="Shape" fill="#FEBC11" fill-rule="nonzero" opacity="0.396158854"></path>
        <path d="M27.5,8.34534947 C16.9212983,8.34534947 8.34556621,16.9212983 8.34556621,27.5 C8.34556621,38.0787017 16.9212983,46.6544338 27.5,46.6544338 C38.0787017,46.6544338 46.6546505,38.0787017 46.6546505,27.5 C46.678676,22.4125353 44.668411,17.5264323 41.0709894,13.9290106 C37.4735677,10.331589 32.5874647,8.32132403 27.5,8.34534947 Z M27.5,45.0067406 C17.8350592,44.997657 10.002343,37.1649408 9.99325944,27.5 C9.99325944,17.8312942 17.8312942,9.99325944 27.5,9.99325944 C37.1687058,9.99325944 45.0067406,17.8312942 45.0067406,27.5 C45.0067406,37.1687058 37.1687058,45.0067406 27.5,45.0067406 Z" id="Shape" fill="#FEBC11" fill-rule="nonzero"></path>
        <path d="M54.1761534,26.6020072 L49.8509587,26.6020072 C49.3959607,26.6020072 49.027112,26.9708559 49.027112,27.4258538 C49.027112,27.8808517 49.3959607,28.2497004 49.8509587,28.2497004 L54.1761534,28.2497004 C54.6311513,28.2497004 55,27.8808517 55,27.4258538 C55,26.9708559 54.6311513,26.6020072 54.1761534,26.6020072 Z" id="Path" fill="#FEBC11" fill-rule="nonzero"></path>
        <path d="M27.5741462,49.027112 C27.1191483,49.027112 26.7502996,49.3959607 26.7502996,49.8509587 L26.7502996,54.1761534 C26.7502996,54.6311513 27.1191483,55 27.5741462,55 C28.0291441,55 28.3979928,54.6311513 28.3979928,54.1761534 L28.3979928,49.8509587 C28.3979928,49.3959607 28.0291441,49.027112 27.5741462,49.027112 Z" id="Path" fill="#FEBC11" fill-rule="nonzero"></path>
        <path d="M5.14904134,26.7502996 L0.823846615,26.7502996 C0.368848693,26.7502996 -3.10862447e-15,27.1191483 -3.10862447e-15,27.5741462 C-3.10862447e-15,28.0291441 0.368848693,28.3979928 0.823846615,28.3979928 L5.14904134,28.3979928 C5.60403926,28.3979928 5.97288796,28.0291441 5.97288796,27.5741462 C5.97288796,27.1191483 5.60403926,26.7502996 5.14904134,26.7502996 Z" id="Path" fill="#FEBC11" fill-rule="nonzero"></path>
        <path d="M27.4258538,5.97288796 C27.8808517,5.97288796 28.2497004,5.60403926 28.2497004,5.14904134 L28.2497004,0.823846615 C28.2497004,0.368848693 27.8808517,-3.10862447e-15 27.4258538,-3.10862447e-15 C26.9708559,-3.10862447e-15 26.6020072,0.368848693 26.6020072,0.823846615 L26.6020072,5.14904134 C26.6020072,5.60403926 26.9708559,5.97288796 27.4258538,5.97288796 Z" id="Path" fill="#FEBC11" fill-rule="nonzero"></path>
        <path d="M11.0230677,12.3329838 C11.3499373,12.6129078 11.8371881,12.5940874 12.1414916,12.289784 C12.445795,11.9854805 12.4646154,11.4982297 12.1846914,11.1713601 L10.5369982,9.52366687 C10.2118139,9.28583669 9.76232619,9.31806941 9.47440422,9.59986538 C9.18648224,9.88166136 9.14459169,10.330352 9.37537448,10.6605752 L11.0230677,12.3329838 Z" id="Path" fill="#FEBC11" fill-rule="nonzero"></path>
        <path d="M11.1631216,42.7741162 L9.5154284,44.4218095 C9.30056599,44.6263702 9.21115681,44.9300199 9.28088044,45.2183766 C9.35060406,45.5067333 9.56886782,45.7359887 9.85345385,45.8197846 C10.1380399,45.9035806 10.4457128,45.8291863 10.6605752,45.6246255 L12.3082684,43.9769323 C12.5881924,43.6500627 12.569372,43.1628119 12.2650686,42.8585084 C11.9607651,42.554205 11.4735143,42.5353846 11.1466447,42.8153086 L11.1631216,42.7741162 Z" id="Path" fill="#FEBC11" fill-rule="nonzero"></path>
        <path d="M43.9769323,42.6670162 C43.6500627,42.3870922 43.1628119,42.4059126 42.8585084,42.710216 C42.554205,43.0145195 42.5353846,43.5017703 42.8153086,43.8286399 L44.4630018,45.4763331 C44.7881861,45.7141633 45.2376738,45.6819306 45.5255958,45.4001346 C45.8135178,45.1183386 45.8554083,44.669648 45.6246255,44.3394248 L43.9769323,42.6670162 Z" id="Path" fill="#FEBC11" fill-rule="nonzero"></path>
        <path d="M43.2519473,12.4648131 C43.4709282,12.4660653 43.681403,12.3800967 43.8368784,12.2258838 L45.4845716,10.5781905 C45.8167201,10.261967 45.8296297,9.73635761 45.5134062,9.40420913 C45.1971827,9.07206066 44.6715733,9.05915095 44.3394248,9.37537448 L42.6917316,11.0230677 C42.4540848,11.2587624 42.3826558,11.6148094 42.5110036,11.9239287 C42.6393514,12.2330481 42.9419626,12.4337919 43.2766627,12.4318454 L43.2519473,12.4648131 Z" id="Path" fill="#FEBC11" fill-rule="nonzero"></path>
    </g>
</svg>